<?xml version="1.0" encoding="utf-8"?>
<!-- Generator: Adobe Illustrator 23.0.5, SVG Export Plug-In . SVG Version: 6.00 Build 0)  -->
<svg version="1.1" id="Layer_1" xmlns="http://www.w3.org/2000/svg" xmlns:xlink="http://www.w3.org/1999/xlink" x="0px" y="0px"
	 viewBox="0 0 500 500" style="enable-background:new 0 0 500 500;" xml:space="preserve">
<style type="text/css">
	.st0{fill:#F8F8F8;}
</style>
<path class="st0" d="M403.5,163c13.4,0,24.3-10.9,24.3-24.3s-10.9-24.3-24.3-24.3s-24.3,10.9-24.3,24.3C379.1,152,390,163,403.5,163
	"/>
<path class="st0" d="M437.2,172.1h-67.3c0,0-25.7,3-25.7,25.5v83.5c0,5.4,4.8,9.7,10.7,9.7c5.9,0,10-4.4,10-9.7l0,0v-67.7
	c0-1.8,1.4-3.2,3.2-3.2c1.8,0,3.2,1.4,3.2,3.2V396c0,7.3,6.5,13.3,14.6,13.3c7.9,0,13.7-5.7,13.9-12.9l0,0V289.5
	c0-1.8,1.4-3.2,3.2-3.2h1c1.8,0,3.2,1.4,3.2,3.2v106.9v0.1c0.3,7.1,6,12.8,13.9,12.8c8.1,0,14.6-5.9,14.6-13.3c0-0.2,0-0.5,0-0.7
	v-182c0-1.8,1.4-3.2,3.2-3.2c1.8,0,3.2,1.4,3.2,3.2V281c0,5.4,4.1,9.7,10,9.7s10.7-4.3,10.7-9.7l0,0v-83.5
	C462.9,175.1,437.2,172.1,437.2,172.1"/>
<path class="st0" d="M96.4,163c13.4,0,24.3-10.9,24.3-24.3s-10.9-24.3-24.3-24.3s-24.3,10.9-24.3,24.3C72.1,152,83,163,96.4,163"/>
<path class="st0" d="M130.1,172.1H62.8c0,0-25.7,3-25.7,25.5v83.5c0,5.4,4.8,9.7,10.7,9.7s10-4.4,10-9.7l0,0v-67.7
	c0-1.8,1.4-3.2,3.2-3.2s3.2,1.4,3.2,3.2V396c0,7.3,6.5,13.3,14.6,13.3c7.9,0,13.7-5.7,13.9-12.9l0,0V289.5c0-1.8,1.4-3.2,3.2-3.2h1
	c1.8,0,3.2,1.4,3.2,3.2v106.9v0.1c0.3,7.1,6,12.8,13.9,12.8c8.1,0,14.6-5.9,14.6-13.3c0-0.2,0-0.5,0-0.7v-182c0-1.8,1.4-3.2,3.2-3.2
	s3.2,1.4,3.2,3.2V281c0,5.4,4.1,9.7,10,9.7s10.7-4.3,10.7-9.7l0,0v-83.5C155.9,175.1,130.1,172.1,130.1,172.1"/>
<g>
	<path class="st0" d="M250.7,105.6c19.6,0,35.6-15.9,35.6-35.6c0-19.6-15.9-35.6-35.6-35.6c-19.6,0-35.6,15.9-35.6,35.6
		C215.1,89.7,231,105.6,250.7,105.6z"/>
	<path class="st0" d="M300,118.9h-98.3c0,0-37.6,4.4-37.6,37.3v122c0,7.8,7,14.2,15.6,14.2s14.6-6.4,14.6-14.2l0,0v-98.9
		c0-2.6,2.1-4.7,4.7-4.7c2.6,0,4.7,2.1,4.7,4.7v266.9c0,10.7,9.5,19.4,21.3,19.4c11.6,0,20-8.4,20.3-18.8l0,0V290.5
		c0-2.6,2.1-4.7,4.7-4.7h1.5c2.6,0,4.7,2.1,4.7,4.7v156.2v0.1c0.4,10.4,8.8,18.7,20.3,18.7c11.8,0,21.3-8.7,21.3-19.4
		c0-0.3,0-0.7,0-1V179.2c0-2.6,2.1-4.7,4.7-4.7s4.7,2.1,4.7,4.7v98.9c0,7.9,6,14.2,14.6,14.2s15.6-6.3,15.6-14.2l0,0v-122
		C337.6,123.4,300,118.9,300,118.9z"/>
</g>
</svg>
