<?xml version="1.0" encoding="utf-8"?>
<!-- Generator: Adobe Illustrator 23.0.5, SVG Export Plug-In . SVG Version: 6.00 Build 0)  -->
<svg version="1.1" id="Layer_1" xmlns="http://www.w3.org/2000/svg" xmlns:xlink="http://www.w3.org/1999/xlink" x="0px" y="0px"
	 viewBox="0 0 500 500" style="enable-background:new 0 0 500 500;" xml:space="preserve">
<style type="text/css">
	.st0{fill:#F8F8F8;}
</style>
<g>
	<path class="st0" d="M417.1,163.3c11,20,18.8,41.2,22.9,63.6c19.2,103-40.9,204.6-140.3,237.3c-121.4,40-250.1-37.2-272-163.1
		C9.1,193.9,76.3,89.5,181.7,62.7c53.6-13.7,105.1-7,153.9,19.4c3.1,1.7,4.1,3,2.9,6.9c-2,6.9-1,11.7-4,16.5
		c-4.6,7.3-7,11-11.2,17.3C245.1,74,144.3,98.4,95,171.6c-46.2,68.5-35.6,160.5,25.3,216.9c60.7,56.2,153.4,59.7,218.2,8.1
		c66.1-52.6,83.5-146.4,37.8-220.4"/>
	<path class="st0" d="M292.3,154.5c-10,9.9-19.6,19.7-29.5,29.1c-1.2,1.2-4.2,1.3-6.1,0.9c-34.5-8.2-63.8,0.6-87,27.4
		c-22.9,26.5-25.8,64.9-8.4,95.3c17.7,30.8,52.1,46.9,87.5,41c33.6-5.6,61.1-32.7,67.7-66.6c2.6-13.2,2.1-26.2-1.7-39
		c-0.9-2.9-0.4-4.8,1.8-7c9.5-9.3,18.8-18.8,28.3-28.2c22.8,39.1,23.4,107.7-28.4,152.9c-48.8,42.6-122.4,40.8-169.3-4
		S95.3,238,135.8,187.4C179.3,133,249.2,130.1,292.3,154.5z"/>
	<path class="st0" d="M425.8,25.5c-2.3,18-4.5,35.9-6.9,54.9c18.9-2.4,37.2-4.7,56.5-7.1c-1.7,1.9-2.7,3.1-3.8,4.2
		c-18.5,18.5-36.8,37.2-55.6,55.3c-4.1,4-10.1,6-15.3,8.8c-1,0.5-2.2,0.7-3.4,0.8c-16.4,1.2-28.2,9.8-39.3,21.5
		c-26.4,27.7-53.9,54.4-81.1,81.4c-2.8,2.8-3.5,5.1-2.4,9.1c6.3,22.5-7.2,45.6-29.6,51.3c-22.5,5.8-45.7-7.9-51.1-30.1
		c-5.7-23.1,8.3-46.2,31.6-50.8c6.6-1.3,13.9-0.2,20.7,0.7c2.9,0.4,4.8,0.4,7-1.8c32.1-32.2,64.3-64.3,96.4-96.6
		c1.5-1.5,2.6-3.8,3.2-6c1.8-6.8,3.4-13.6,4.7-20.4c1.4-7.3,4.8-13.2,10.1-18.5c17.9-17.7,35.6-35.5,53.4-53.3
		c1.3-1.3,2.6-2.5,3.9-3.7C425,25.3,425.4,25.4,425.8,25.5z"/>
</g>
</svg>
