<?xml version="1.0" encoding="utf-8"?>
<!-- Generator: Adobe Illustrator 23.0.5, SVG Export Plug-In . SVG Version: 6.00 Build 0)  -->
<svg version="1.1" id="Layer_1" xmlns="http://www.w3.org/2000/svg" xmlns:xlink="http://www.w3.org/1999/xlink" x="0px" y="0px"
	 viewBox="0 0 500 500" style="enable-background:new 0 0 500 500;" xml:space="preserve">
<style type="text/css">
	.st0{fill:#F8F8F8;}
</style>
<path class="st0" d="M250,19.5C125.1,20,20.9,117.3,19.6,249.6c-1.2,127,104.8,231.7,231.2,230.9c127.3-0.9,230.1-104.4,229.5-231.2
	C479.8,121.4,377,18.9,250,19.5z M277.9,238.8c-2.8,3.4-4.6,9.1-4.1,13.5c1.8,17.9-9.6,33.3-27.1,35.1c-18.7,2-33.9-10.4-35.1-28.4
	c-1.1-17.8,12.7-33.9,30.6-32.9c9.3,0.5,14.4-2.9,19.8-9.2c9.7-11.4,20.1-22.2,30.4-33.5c6.3,6.2,12,11.6,18.7,18.2
	C300.1,213.8,288.6,225.9,277.9,238.8z M400.9,245.7c-2-46.1-19.1-85.5-55.7-114.3c-30-23.6-64.8-34-103.2-32
	c-39.2,2-73,16.4-100.6,44.2c-27.8,27.9-40.4,62.5-41.8,102.2c-9.5,0-17.3,0-26.4,0c1.8-61.4,26.4-110.7,77.5-143.6
	c63.5-40.9,130.3-41.6,194.8-2.5c53.6,32.5,79.3,82.8,81.8,146C418.1,245.7,410,245.7,400.9,245.7z"/>
</svg>
