<?xml version="1.0" encoding="utf-8"?>
<!-- Generator: Adobe Illustrator 23.0.5, SVG Export Plug-In . SVG Version: 6.00 Build 0)  -->
<svg version="1.1" id="Layer_1" xmlns="http://www.w3.org/2000/svg" xmlns:xlink="http://www.w3.org/1999/xlink" x="0px" y="0px"
	 viewBox="0 0 500 500" style="enable-background:new 0 0 500 500;" xml:space="preserve">
<style type="text/css">
	.st0{fill:#F8F8F8;}
</style>
<g>
	<path class="st0" d="M457.8,344.8c0-21.3-0.2-42.6-0.8-63.8c-0.3-11.4-4.2-15.6-15.4-17.1c-7.6-1-15.5,0-23.1-0.9
		c-28.5-3.3-52.9,5.1-73.6,24.7c-24.6,23.2-53.5,33.1-87.2,28.9c-16.3-2-28.6,5.2-38.5,17.6c-11,13.7-22.5,27.1-33,41.2
		c-14.7,19.9-32.2,36.2-54,48.2c-17,9.4-33.2,20.3-49.7,30.4c-6.8,4.2-11.8,9.5-9.5,18.1c2.4,8.8,10,7.8,16.7,7.8
		c56.5,0.1,112.9,0,169.4,0v-0.1c56.8,0,113.6,0.2,170.3-0.1c19.6-0.1,27.3-7.1,27.7-26.7C458,417,457.8,380.9,457.8,344.8z"/>
	<path class="st0" d="M239.1,221c3.2-0.1,7.5-4.8,9.2-8.5c1.5-3.2,0.1-7.8,0.2-11.8c0.3-10.1-0.4-20.4,1.3-30.3
		c1.4-8,5.7-15.5,8.8-23.2c1.2,0.3,2.4,0.6,3.6,0.9c0,9.7-0.3,19.4,0.1,29.2c0.6,17.5,5.2,22.8,22,26.8c9.9,2.4,19.8,4.9,29.7,7
		c6.6,1.4,9.9,4.4,10.5,11.7c1.2,14.1,3.1,28.2,5.3,42.2c1.1,7.1,4.5,13.7,13,12.7c8.3-0.9,10.8-7.3,10.4-14.9
		c-1.2-19.7-2.5-39.4-3.8-59.1c-0.5-7.6-4.2-12.6-11.8-14.6c-8.9-2.4-17.8-4.9-26.6-7.9c-2.3-0.8-5.5-3.6-5.6-5.6
		c-0.5-12.6-0.3-25.2-0.3-38.4c3.4,0.6,5.8,1.1,8.2,1.4c27.1,4.2,55.7-13.3,63.2-38.7c1.9-6.4,1.7-12-4-16.7
		c-9.6-8.1-9.6-19.8,1.1-26c9.2-5.3,19.7-8.5,29.6-12.7c7.3-3.1,13.7-7.3,16.8-14.9c-17.1-3.3-32.9-6.8-49-9.2
		c-5.5-0.8-11.6,0.6-17.1,2c-7.8,2.1-10.6,7.3-8.2,15.6c4.1,14.5,7.8,29.2,11.4,43.9c0.7,2.9,1.2,6.2,0.4,8.9
		c-4.6,15-18.6,25-34.5,24c-9.8-0.6-19.4-3.2-29.2-4.6c-18.2-2.6-34.9-0.5-48.8,13.4c-20.7,20.5-29.8,64.2-17.5,90.7
		C229.3,217.6,235.2,221.1,239.1,221z"/>
	<path class="st0" d="M67.9,301.5c0.6-11,3.3-21.6,12.3-30.9c0.8,13.1,1.1,25,2.4,36.8c1.2,10.4,6.7,17.4,17.9,19.4
		c10.9,2,21.6,5.3,32.4,7.4c8.1,1.6,11.6,5.5,10.8,14c-0.9,10.1-1.4,20.3-0.9,30.4c0.3,6.9,3.7,12.6,12.1,12.3
		c8-0.3,10.4-5.9,11-12.4c1.4-16.6,2.2-33.2,3.6-49.8c0.7-8.9-3.2-13.8-11.6-16.1c-10.9-3-21.7-6.5-32.5-9.7c0-14.2,0-27.6,0-40.1
		c11.6-1.1,22.2-0.8,32.1-3.3c20-4.9,33.3-17.9,39.1-37.9c2-6.7,1.1-12.6-5.8-15.5c-7.1-3-10.9,1.4-13.3,7.5c-0.7,1.7-1.5,3.4-2.4,5
		c-7.8,15-19.3,21.4-36.4,19.5c-7.3-0.8-14.5-3.1-21.8-4.1c-32.2-4.8-50.9,1.3-67.8,35.7c-10.5,21.2-7,44-2.8,66.3
		c1.3,6.6,7,10.6,13.1,8.3c3.7-1.4,7.8-7.1,8.3-11.2C68.8,322.5,67.3,311.9,67.9,301.5z"/>
	<path class="st0" d="M84,417.1c-1,6.8,0.8,12.6,8.1,14.5c7.3,1.9,11.9-2.7,14.1-8.9c9.6-27.2,20.3-54.3,14-85.7
		c-7.6-1.8-15.9-3.8-25.6-6.1c0,6.2-0.2,11.3,0,16.4c1.1,19.3-1.2,38-7.6,56.2C85.5,408,84.7,412.6,84,417.1z"/>
	<path class="st0" d="M102.7,220.6c15.8-0.2,28.2-12.7,28.1-28.2c-0.1-14.9-13.1-27.5-28-27.5C87.5,165,74.3,178,74.2,193
		C74.2,208.8,86.6,220.8,102.7,220.6z"/>
	<path class="st0" d="M270.9,307.4c7.9,2.5,12.8-2.5,15.1-8.9c8.9-25.5,19.7-50.8,16.1-78.8c-0.3-2.4-2.5-5.7-4.6-6.4
		c-6.9-2.3-14.2-3.5-23.1-5.6c4.3,29.6-2.6,56.7-10.4,83.7C262.2,297.9,262.8,304.9,270.9,307.4z"/>
	<path class="st0" d="M283,97.7c15.3-0.1,28.5-13.3,28.4-28.3c-0.1-15.1-12.5-27.3-27.8-27.4c-15.9-0.1-28.5,12-28.7,27.5
		C254.7,85.1,267.5,97.9,283,97.7z"/>
</g>
</svg>
